<svg width="240" height="72" viewBox="0 0 240 72" fill="none" xmlns="http://www.w3.org/2000/svg" role="img" aria-label="世界杯预测">
  <rect width="240" height="72" rx="14" fill="#FFFFFF"/>
  <circle cx="36" cy="36" r="22" fill="#F26A21"/>
  <path d="M26 35.5C28.4 28.8 34.7 24 42 24C45.2 24 48.2 24.9 50.8 26.5" stroke="#FFFFFF" stroke-width="4" stroke-linecap="round"/>
  <path d="M47.5 39.5C45.1 46.1 38.8 50.8 31.5 50.8C28.3 50.8 25.3 49.9 22.8 48.4" stroke="#FFFFFF" stroke-width="4" stroke-linecap="round"/>
  <path d="M22 30L27.4 29.4L26.2 24.1" stroke="#FFFFFF" stroke-width="4" stroke-linecap="round" stroke-linejoin="round"/>
  <path d="M52 45L46.6 45.6L47.8 50.9" stroke="#FFFFFF" stroke-width="4" stroke-linecap="round" stroke-linejoin="round"/>
  <path d="M72 48H88V33H104V41H120V24H136" stroke="#F26A21" stroke-width="5" stroke-linecap="round" stroke-linejoin="round"/>
  <text x="72" y="25" fill="#17202A" font-family="Arial, 'PingFang SC', 'Microsoft YaHei', sans-serif" font-size="18" font-weight="800">世界杯预测</text>
  <text x="148" y="49" fill="#667085" font-family="Arial, 'PingFang SC', 'Microsoft YaHei', sans-serif" font-size="12" font-weight="700">90分钟模型</text>
</svg>
